<mxfile host="app.diagrams.net" modified="2022-02-06T22:32:44.983Z" agent="5.0 (Windows NT 10.0; Win64; x64) AppleWebKit/537.36 (KHTML, like Gecko) Chrome/98.0.4758.80 Safari/537.36 Edg/98.0.1108.43" etag="c5clXGJSxwsQB45vWQ_n" version="16.5.2" type="github">
  <diagram id="zG4_CcgRTEY8QdAmRGX4" name="Page-1">
    <mxGraphModel dx="1038" dy="579" grid="1" gridSize="10" guides="1" tooltips="1" connect="1" arrows="1" fold="1" page="1" pageScale="1" pageWidth="850" pageHeight="1100" math="0" shadow="0">
      <root>
        <mxCell id="0" />
        <mxCell id="1" parent="0" />
        <mxCell id="kPwSBChRonqfmfkoCQ3S-1" value="Articulo" style="swimlane;fontStyle=0;childLayout=stackLayout;horizontal=1;startSize=30;horizontalStack=0;resizeParent=1;resizeParentMax=0;resizeLast=0;collapsible=1;marginBottom=0;" vertex="1" parent="1">
          <mxGeometry x="120" y="40" width="140" height="120" as="geometry" />
        </mxCell>
        <mxCell id="kPwSBChRonqfmfkoCQ3S-2" value="-Nombre" style="text;strokeColor=none;fillColor=none;align=left;verticalAlign=middle;spacingLeft=4;spacingRight=4;overflow=hidden;points=[[0,0.5],[1,0.5]];portConstraint=eastwest;rotatable=0;" vertex="1" parent="kPwSBChRonqfmfkoCQ3S-1">
          <mxGeometry y="30" width="140" height="30" as="geometry" />
        </mxCell>
        <mxCell id="kPwSBChRonqfmfkoCQ3S-3" value="-DescripciÃ³n" style="text;strokeColor=none;fillColor=none;align=left;verticalAlign=middle;spacingLeft=4;spacingRight=4;overflow=hidden;points=[[0,0.5],[1,0.5]];portConstraint=eastwest;rotatable=0;" vertex="1" parent="kPwSBChRonqfmfkoCQ3S-1">
          <mxGeometry y="60" width="140" height="30" as="geometry" />
        </mxCell>
        <mxCell id="kPwSBChRonqfmfkoCQ3S-4" value="-Valor estimado" style="text;strokeColor=none;fillColor=none;align=left;verticalAlign=middle;spacingLeft=4;spacingRight=4;overflow=hidden;points=[[0,0.5],[1,0.5]];portConstraint=eastwest;rotatable=0;" vertex="1" parent="kPwSBChRonqfmfkoCQ3S-1">
          <mxGeometry y="90" width="140" height="30" as="geometry" />
        </mxCell>
        <mxCell id="kPwSBChRonqfmfkoCQ3S-13" style="edgeStyle=orthogonalEdgeStyle;rounded=0;orthogonalLoop=1;jettySize=auto;html=1;exitX=0.5;exitY=0;exitDx=0;exitDy=0;" edge="1" parent="1" source="kPwSBChRonqfmfkoCQ3S-5">
          <mxGeometry relative="1" as="geometry">
            <mxPoint x="190" y="170" as="targetPoint" />
          </mxGeometry>
        </mxCell>
        <mxCell id="kPwSBChRonqfmfkoCQ3S-5" value="Cliente" style="swimlane;fontStyle=0;childLayout=stackLayout;horizontal=1;startSize=30;horizontalStack=0;resizeParent=1;resizeParentMax=0;resizeLast=0;collapsible=1;marginBottom=0;" vertex="1" parent="1">
          <mxGeometry x="120" y="240" width="140" height="170" as="geometry" />
        </mxCell>
        <mxCell id="kPwSBChRonqfmfkoCQ3S-6" value="-Cedula" style="text;strokeColor=none;fillColor=none;align=left;verticalAlign=middle;spacingLeft=4;spacingRight=4;overflow=hidden;points=[[0,0.5],[1,0.5]];portConstraint=eastwest;rotatable=0;" vertex="1" parent="kPwSBChRonqfmfkoCQ3S-5">
          <mxGeometry y="30" width="140" height="30" as="geometry" />
        </mxCell>
        <mxCell id="kPwSBChRonqfmfkoCQ3S-7" value="-Nombre&#xa;&#xa;-Pais origen&#xa;&#xa;-Identificador&#xa;&#xa;-Articulos clientes" style="text;strokeColor=none;fillColor=none;align=left;verticalAlign=top;spacingLeft=4;spacingRight=4;overflow=hidden;points=[[0,0.5],[1,0.5]];portConstraint=eastwest;rotatable=0;" vertex="1" parent="kPwSBChRonqfmfkoCQ3S-5">
          <mxGeometry y="60" width="140" height="110" as="geometry" />
        </mxCell>
        <mxCell id="kPwSBChRonqfmfkoCQ3S-9" value="Banco" style="swimlane;fontStyle=0;childLayout=stackLayout;horizontal=1;startSize=30;horizontalStack=0;resizeParent=1;resizeParentMax=0;resizeLast=0;collapsible=1;marginBottom=0;" vertex="1" parent="1">
          <mxGeometry x="400" y="240" width="140" height="60" as="geometry" />
        </mxCell>
        <mxCell id="kPwSBChRonqfmfkoCQ3S-10" value="-Clientes" style="text;strokeColor=none;fillColor=none;align=left;verticalAlign=middle;spacingLeft=4;spacingRight=4;overflow=hidden;points=[[0,0.5],[1,0.5]];portConstraint=eastwest;rotatable=0;" vertex="1" parent="kPwSBChRonqfmfkoCQ3S-9">
          <mxGeometry y="30" width="140" height="30" as="geometry" />
        </mxCell>
        <mxCell id="kPwSBChRonqfmfkoCQ3S-14" style="edgeStyle=orthogonalEdgeStyle;rounded=0;orthogonalLoop=1;jettySize=auto;html=1;exitX=0;exitY=0.5;exitDx=0;exitDy=0;entryX=1;entryY=0.5;entryDx=0;entryDy=0;" edge="1" parent="1" source="kPwSBChRonqfmfkoCQ3S-10" target="kPwSBChRonqfmfkoCQ3S-7">
          <mxGeometry relative="1" as="geometry">
            <mxPoint x="400" y="315" as="sourcePoint" />
          </mxGeometry>
        </mxCell>
        <mxCell id="kPwSBChRonqfmfkoCQ3S-15" value="&lt;ul&gt;&lt;li&gt;Suma colectiva&lt;/li&gt;&lt;li&gt;Retirar cliente&lt;/li&gt;&lt;li&gt;agregar cliente&lt;/li&gt;&lt;li&gt;agregar articulo&lt;/li&gt;&lt;/ul&gt;" style="rounded=0;whiteSpace=wrap;html=1;align=left;" vertex="1" parent="1">
          <mxGeometry x="400" y="300" width="140" height="80" as="geometry" />
        </mxCell>
        <mxCell id="kPwSBChRonqfmfkoCQ3S-16" value="&lt;div&gt;&lt;ul&gt;&lt;li&gt;Suma individual&lt;/li&gt;&lt;li&gt;Retirar Articulo.&lt;/li&gt;&lt;/ul&gt;&lt;/div&gt;&lt;div&gt;&lt;br&gt;&lt;/div&gt;" style="rounded=0;whiteSpace=wrap;html=1;align=left;" vertex="1" parent="1">
          <mxGeometry x="120" y="410" width="140" height="50" as="geometry" />
        </mxCell>
      </root>
    </mxGraphModel>
  </diagram>
</mxfile>
